<svg width="136" height="141" viewBox="0 0 136 141" fill="none" xmlns="http://www.w3.org/2000/svg">
<g clip-path="url(#clip0_14_92)">
<path d="M14.7822 -7.92178L7.83764 -0.977176C8.62406 -0.312632 9.43009 0.426364 10.2597 1.25598C22.6277 13.6239 15.3403 20.9113 27.7094 33.2804C40.0773 45.6484 47.3647 38.361 59.7338 50.73C72.1029 63.0991 64.8155 70.3865 77.1834 82.7545C89.5514 95.1224 96.8388 87.835 109.208 100.204C121.577 112.573 114.288 119.859 126.658 132.229C130.298 135.869 133.498 137.806 136.518 139.043L149.133 126.429L14.7822 -7.92178Z" fill="url(#paint0_linear_14_92)"/>
<path d="M22.3994 -15.539L15.4548 -8.59436C16.2412 -7.92982 17.0473 -7.19082 17.8769 -6.36121C30.2448 6.00675 22.9575 13.2941 35.3265 25.6632C47.6945 38.0312 54.9819 30.7438 67.351 43.1129C79.72 55.4819 72.4327 62.7693 84.8006 75.1373C97.1686 87.5052 104.456 80.2179 116.825 92.5869C129.194 104.956 121.906 112.242 134.275 124.611C137.916 128.252 141.115 130.189 144.135 131.426L156.75 118.811L22.3994 -15.539Z" fill="url(#paint1_linear_14_92)"/>
<path d="M30.0167 -23.1562L23.0721 -16.2116C23.8585 -15.5471 24.6645 -14.8081 25.4941 -13.9785C37.8621 -1.6105 30.5747 5.67688 42.9438 18.046C55.3118 30.4139 62.5991 23.1265 74.9682 35.4956C87.3373 47.8647 80.0499 55.1521 92.4179 67.52C104.786 79.888 112.073 72.6006 124.442 84.9697C136.811 97.3388 129.523 104.625 141.892 116.994C145.533 120.635 148.733 122.572 151.752 123.809L164.367 111.194L30.0167 -23.1562Z" fill="url(#paint2_linear_14_92)"/>
<path d="M37.6339 -30.7734L30.6893 -23.8288C31.4757 -23.1643 32.2817 -22.4253 33.1113 -21.5956C45.4793 -9.22769 38.1919 -1.9403 50.561 10.4288C62.9289 22.7967 70.2163 15.5093 82.5854 27.8784C94.9545 40.2475 87.6671 47.5349 100.035 59.9028C112.403 72.2708 119.69 64.9834 132.059 77.3525C144.429 89.7216 137.14 97.0079 149.509 109.377C153.15 113.018 156.35 114.955 159.369 116.192L171.984 103.577L37.6339 -30.7734Z" fill="url(#paint3_linear_14_92)"/>
<path d="M45.2511 -38.3906L38.3065 -31.446C39.0929 -30.7814 39.8989 -30.0424 40.7285 -29.2128C53.0965 -16.8449 45.8091 -9.55749 58.1782 2.81159C70.5461 15.1795 77.8335 7.89215 90.2026 20.2612C102.572 32.6303 95.2843 39.9177 107.652 52.2857C120.02 64.6536 127.308 57.3662 139.677 69.7353C152.046 82.1044 144.757 89.3907 157.126 101.76C160.767 105.401 163.967 107.337 166.986 108.575L179.601 95.9597L45.2511 -38.3906Z" fill="url(#paint4_linear_14_92)"/>
<path d="M52.8683 -46.0078L45.9237 -39.0632C46.7101 -38.3987 47.5161 -37.6597 48.3458 -36.8301C60.7137 -24.4621 53.4263 -17.1747 65.7954 -4.80566C78.1634 7.5623 85.4507 0.274906 97.8198 12.644C110.189 25.0131 102.902 32.3005 115.269 44.6684C127.637 57.0364 134.925 49.749 147.294 62.1181C159.663 74.4872 152.374 81.7734 164.744 94.1425C168.384 97.7834 171.584 99.7202 174.604 100.957L187.219 88.3424L52.8683 -46.0078Z" fill="url(#paint5_linear_14_92)"/>
<path d="M60.4855 -53.625L53.5409 -46.6804C54.3273 -46.0159 55.1333 -45.2769 55.9629 -44.4473C68.3309 -32.0793 61.0435 -24.7919 73.4126 -12.4228C85.7806 -0.0548862 93.0679 -7.34228 105.437 5.0268C117.806 17.3959 110.519 24.6833 122.887 37.0512C135.255 49.4192 142.542 42.1318 154.911 54.5009C167.28 66.87 159.992 74.1562 172.361 86.5253C176.002 90.1662 179.201 92.103 182.221 93.3401L194.836 80.7253L60.4855 -53.625Z" fill="url(#paint6_linear_14_92)"/>
<path d="M67.341 -60.4805L60.3964 -53.5359C61.1828 -52.8713 61.9888 -52.1324 62.8184 -51.3027C75.1864 -38.9348 67.899 -31.6474 80.2681 -19.2783C92.636 -6.91035 99.9234 -14.1977 112.292 -1.82867C124.662 10.5404 117.374 17.8278 129.742 30.1958C142.11 42.5637 149.397 35.2763 161.767 47.6454C174.136 60.0145 166.847 67.3008 179.216 79.6698C182.857 83.3107 186.057 85.2475 189.076 86.4846L201.691 73.8698L67.341 -60.4805Z" fill="url(#paint7_linear_14_92)"/>
<path d="M73.4348 -66.5743L66.4902 -59.6297C67.2766 -58.9652 68.0826 -58.2262 68.9122 -57.3966C81.2802 -45.0286 73.9928 -37.7412 86.3619 -25.3721C98.7298 -13.0042 106.017 -20.2916 118.386 -7.92248C130.755 4.4466 123.468 11.734 135.836 24.1019C148.204 36.4699 155.491 29.1825 167.86 41.5516C180.229 53.9207 172.941 61.2069 185.31 73.576C188.951 77.2169 192.151 79.1537 195.17 80.3908L207.785 67.776L73.4348 -66.5743Z" fill="url(#paint8_linear_14_92)"/>
</g>
<defs>
<linearGradient id="paint0_linear_14_92" x1="67.8189" y1="73.3907" x2="94.1899" y2="47.0197" gradientUnits="userSpaceOnUse">
<stop offset="0.0935" stop-color="#4A30B6"/>
<stop offset="0.489311" stop-color="white"/>
</linearGradient>
<linearGradient id="paint1_linear_14_92" x1="75.4361" y1="65.7735" x2="101.807" y2="39.4025" gradientUnits="userSpaceOnUse">
<stop offset="0.0935" stop-color="#4A30B6"/>
<stop offset="0.489311" stop-color="white"/>
</linearGradient>
<linearGradient id="paint2_linear_14_92" x1="83.0533" y1="58.1563" x2="109.424" y2="31.7853" gradientUnits="userSpaceOnUse">
<stop offset="0.0935" stop-color="#4A30B6"/>
<stop offset="0.489311" stop-color="white"/>
</linearGradient>
<linearGradient id="paint3_linear_14_92" x1="90.6705" y1="50.5391" x2="117.042" y2="24.1681" gradientUnits="userSpaceOnUse">
<stop offset="0.0935" stop-color="#4A30B6"/>
<stop offset="0.489311" stop-color="white"/>
</linearGradient>
<linearGradient id="paint4_linear_14_92" x1="98.2877" y1="42.9219" x2="124.659" y2="16.5509" gradientUnits="userSpaceOnUse">
<stop offset="0.0935" stop-color="#4A30B6"/>
<stop offset="0.489311" stop-color="white"/>
</linearGradient>
<linearGradient id="paint5_linear_14_92" x1="105.905" y1="35.3047" x2="132.276" y2="8.93366" gradientUnits="userSpaceOnUse">
<stop offset="0.0935" stop-color="#4A30B6"/>
<stop offset="0.489311" stop-color="white"/>
</linearGradient>
<linearGradient id="paint6_linear_14_92" x1="113.522" y1="27.6875" x2="139.893" y2="1.31647" gradientUnits="userSpaceOnUse">
<stop offset="0.0935" stop-color="#4A30B6"/>
<stop offset="0.489311" stop-color="white"/>
</linearGradient>
<linearGradient id="paint7_linear_14_92" x1="120.378" y1="20.832" x2="146.749" y2="-5.539" gradientUnits="userSpaceOnUse">
<stop offset="0.0935" stop-color="#4A30B6"/>
<stop offset="0.489311" stop-color="white"/>
</linearGradient>
<linearGradient id="paint8_linear_14_92" x1="126.471" y1="14.7382" x2="152.842" y2="-11.6328" gradientUnits="userSpaceOnUse">
<stop offset="0.0935" stop-color="#4A30B6"/>
<stop offset="0.489311" stop-color="white"/>
</linearGradient>
<clipPath id="clip0_14_92">
<rect width="190" height="102.941" fill="white" transform="translate(134.995 140.566) rotate(-135)"/>
</clipPath>
</defs>
</svg>
